<svg id="Ebene_1" data-name="Ebene 1" xmlns="http://www.w3.org/2000/svg" viewBox="0 0 200.64 69.25"><title>logo</title><path d="M1.39,30.14V25.39A27.44,27.44,0,0,0,11,27q6.52,0,6.52-4.36,0-3.17-4-3.17H8.7Q0,19.44,0,11.51,0,2.79,12.39,2.79a29,29,0,0,1,9,1.39V8.94a25.66,25.66,0,0,0-9-1.58q-7.14,0-7.13,4.16,0,3.17,3.45,3.17h4.84q9.25,0,9.26,7.93,0,8.92-11.77,8.92A31,31,0,0,1,1.39,30.14Z" style="fill:#fff"/><path d="M29,3h5.65l8,13.66L50.08,3h5.45L45.11,21.42v9.91H39.85V21.42Z" style="fill:#fff"/><path d="M63.52,31.33V3H69l9.61,21.5L88,3h5.25V31.33H88.39V11.59L80.71,31.33H76.23L68.38,11.59V31.33H63.52Z" style="fill:#fff"/><path d="M124.66,30.14a23.39,23.39,0,0,1-8.32,1.39q-15.26,0-15.26-14.77,0-14,15.26-14a23.43,23.43,0,0,1,8.32,1.39V8.94a19.77,19.77,0,0,0-7.93-1.58q-10.21,0-10.21,9.41Q106.53,27,116.74,27a19.74,19.74,0,0,0,7.93-1.59v4.76Z" style="fill:#fff"/><path d="M173.09,31.33V3h5.25L194.1,23.25V3h5.05V31.33H193.9L178.15,10.64V31.33h-5.05Z" style="fill:#fff"/><path d="M146,31.38h15.75V20.16L163.61,22l3.57-3.57L148.78,0h0l-18.4,18.4L133.95,22l1.82-1.82V31.38h5.07l0-16.27,8-8,8,8V26.33h-5.5V21H146V31.38Z" style="fill:#fff"/><polygon points="6.66 48.59 158.98 48.59 158.98 43.39 0 43.39 6.66 48.59" style="fill:#fff"/><path d="M172.23,41.1v8h-2.76a0.57,0.57,0,0,1-.33-0.08,0.26,0.26,0,0,1-.11-0.23,0.31,0.31,0,0,1,.23-0.32l0.23-.08a0.18,0.18,0,0,0,.07-0.07,0.5,0.5,0,0,0,.07-0.3V42.16a0.5,0.5,0,0,0-.07-0.3,0.18,0.18,0,0,0-.07-0.07l-0.23-.08A0.31,0.31,0,0,1,169,41.4a0.26,0.26,0,0,1,.11-0.23,0.57,0.57,0,0,1,.33-0.08h2.76Zm1.18,6.32V42.8a1.57,1.57,0,0,0-.12-0.68,0.57,0.57,0,0,0-.19-0.24,1,1,0,0,0-.35-0.13V41.1l0.53,0a2.82,2.82,0,0,1,1.44.63,3.17,3.17,0,0,1,1,1.39,5.15,5.15,0,0,1,.35,1.92,4.91,4.91,0,0,1-.44,2.12,3.47,3.47,0,0,1-1.26,1.46,2.71,2.71,0,0,1-.74.35,3.51,3.51,0,0,1-.9.09V48.46a1.7,1.7,0,0,0,.34-0.12,0.46,0.46,0,0,0,.17-0.16,0.78,0.78,0,0,0,.12-0.29A2.58,2.58,0,0,0,173.41,47.42Z" style="fill:#fff"/><path d="M178.76,42.59l0.3,1.21-1,3.79a1.11,1.11,0,0,0,0,.3,0.54,0.54,0,0,0,.35.53l0.21,0.09a0.3,0.3,0,0,1,.19.29q0,0.29-.43.29H176.8a0.58,0.58,0,0,1-.34-0.09,0.29,0.29,0,0,1-.13-0.25,0.34,0.34,0,0,1,.26-0.28,1.91,1.91,0,0,0,.35-0.19,1,1,0,0,0,.22-0.23,2.08,2.08,0,0,0,.27-0.64Zm0.4-1.49h2.36L183.15,48a2.4,2.4,0,0,0,.11.32,0.4,0.4,0,0,0,.23.18,0.62,0.62,0,0,1,.21.13,0.25,0.25,0,0,1,.06.18q0,0.3-.46.3h-2.92A0.44,0.44,0,0,1,180.1,49a0.32,0.32,0,0,1-.06-0.4,0.74,0.74,0,0,1,.21-0.15,0.41,0.41,0,0,0,.16-0.13,0.31,0.31,0,0,0,0-.18,0.79,0.79,0,0,0,0-.18l-0.19-.85h-1.63l0.16-.7h1.31L179,41.67Z" style="fill:#fff"/><path d="M187.44,41.1V48a0.49,0.49,0,0,0,.09.33,0.22,0.22,0,0,0,.09.07l0.27,0.07a0.31,0.31,0,0,1,.28.32A0.28,0.28,0,0,1,188,49a0.72,0.72,0,0,1-.37.07h-3a0.57,0.57,0,0,1-.33-0.08,0.26,0.26,0,0,1-.11-0.23,0.31,0.31,0,0,1,.23-0.32l0.23-.08a0.18,0.18,0,0,0,.07-0.07,0.5,0.5,0,0,0,.07-0.3V42.16a0.5,0.5,0,0,0-.07-0.3,0.18,0.18,0,0,0-.07-0.07l-0.23-.08a0.31,0.31,0,0,1-.23-0.32,0.26,0.26,0,0,1,.11-0.23,0.57,0.57,0,0,1,.33-0.08h2.76Zm1.8,4.08a5,5,0,0,1,.83.18,2,2,0,0,1,.52.27,1.27,1.27,0,0,1,.38.43,1.13,1.13,0,0,1,.13.53v1.21q0,0.19.12,0.19a0.12,0.12,0,0,0,.08,0l0.09-.1a0.4,0.4,0,0,1,.3-0.2,0.28,0.28,0,0,1,.2.11,0.31,0.31,0,0,1,.1.21,0.85,0.85,0,0,1-.17.44,2,2,0,0,1-.43.47,1.53,1.53,0,0,1-.52.28,2.3,2.3,0,0,1-.66.08,1.61,1.61,0,0,1-1.21-.44,1.69,1.69,0,0,1-.43-1.23v-1q0-.33,0-0.38a0.8,0.8,0,0,0-.16-0.4,0.7,0.7,0,0,0-.49-0.24V44.94a0.89,0.89,0,0,0,.45-0.16,0.55,0.55,0,0,0,.16-0.24,1.36,1.36,0,0,0,0-.4V42.59a0.88,0.88,0,0,0-.14-0.55,1,1,0,0,0-.52-0.29V41.1h0.15q0.65,0,1.11,0a2.45,2.45,0,0,1,1.21.45,1.79,1.79,0,0,1,.77,1.55,1.85,1.85,0,0,1-.52,1.35,1.79,1.79,0,0,1-.51.36A6.23,6.23,0,0,1,189.24,45.18Z" style="fill:#fff"/><path d="M196,49.1H193.2a0.57,0.57,0,0,1-.33-0.08,0.26,0.26,0,0,1-.11-0.23,0.31,0.31,0,0,1,.23-0.32l0.23-.08a0.18,0.18,0,0,0,.07-0.07,0.5,0.5,0,0,0,.07-0.3V42.16a0.5,0.5,0,0,0-.07-0.3,0.18,0.18,0,0,0-.07-0.07L193,41.72a0.31,0.31,0,0,1-.23-0.32,0.26,0.26,0,0,1,.11-0.23,0.57,0.57,0,0,1,.33-0.08h2.92a0.57,0.57,0,0,1,.33.08,0.26,0.26,0,0,1,.11.23,0.31,0.31,0,0,1-.23.32l-0.23.08a0.18,0.18,0,0,0-.07.07,0.5,0.5,0,0,0-.07.3V48a0.36,0.36,0,0,0,.17.39l0.18,0.06a0.3,0.3,0,0,1,.22.32q0,0.3-.42.3H196Zm2.32-5.68L200.05,48a1.08,1.08,0,0,0,.15.28,0.5,0.5,0,0,0,.2.15l0.16,0.09a0.29,0.29,0,0,1,.08.22q0,0.31-.44.31h-2.95a0.52,0.52,0,0,1-.33-0.09,0.3,0.3,0,0,1-.11-0.25,0.32,0.32,0,0,1,.22-0.29,0.79,0.79,0,0,0,.18-0.11,0.18,0.18,0,0,0,.05-0.12,0.86,0.86,0,0,0,0-.19l-0.75-2.24a1.69,1.69,0,0,1-.11-0.53,0.79,0.79,0,0,1,.17-0.45l1.4-2a1,1,0,0,0,.2-0.57A0.56,0.56,0,0,0,198,42a0.48,0.48,0,0,0-.23-0.2l-0.21-.09a0.28,0.28,0,0,1-.2-0.28,0.32,0.32,0,0,1,.12-0.26,0.44,0.44,0,0,1,.27-0.06h2.09a0.5,0.5,0,0,1,.32.09,0.31,0.31,0,0,1,.11.25,0.36,0.36,0,0,1-.27.35l-0.31.12a1.85,1.85,0,0,0-.49.32,3.92,3.92,0,0,0-.55.63Z" style="fill:#fff"/></svg>